<svg width="62" height="63" viewBox="0 0 62 63" fill="none" xmlns="http://www.w3.org/2000/svg">
<g clip-path="url(#clip0_72_2782)">
<path d="M58.5725 0.119239H3.427C2.97814 0.119226 2.53371 0.20805 2.11933 0.380601C1.70495 0.553151 1.32882 0.806006 1.01262 1.1246C0.696426 1.44319 0.446399 1.82122 0.276981 2.23689C0.107562 2.65256 0.0220877 3.09763 0.0254882 3.54649V58.692C0.0254627 59.5965 0.383037 60.4643 1.02021 61.1063C1.65739 61.7483 2.52251 62.1124 3.427 62.1192H33.1386V38.1026H25.0471V28.7485H33.1386V21.8424C33.1386 13.8541 38.0089 9.47335 45.1726 9.47335C47.5833 9.4598 49.9926 9.58887 52.3879 9.85988V18.209H47.4146C43.5492 18.209 42.8019 20.0644 42.8019 22.7701V28.7485H52.0529L50.8418 38.1026H42.8019V62.1192H58.5983C59.5028 62.1124 60.3679 61.7483 61.0051 61.1063C61.6422 60.4643 61.9998 59.5965 61.9997 58.692V3.54649C62.0032 3.09546 61.9169 2.64826 61.7458 2.23089C61.5748 1.81353 61.3225 1.43435 61.0036 1.11542C60.6846 0.796481 60.3054 0.544151 59.8881 0.37313C59.4707 0.202108 59.0235 0.115809 58.5725 0.119239Z" fill="white"/>
</g>
<defs>
<clipPath id="clip0_72_2782">
<rect width="62" height="62" fill="white" transform="translate(0 0.119141)"/>
</clipPath>
</defs>
</svg>
