<svg width="62" height="63" viewBox="0 0 62 63" fill="none" xmlns="http://www.w3.org/2000/svg">
<g clip-path="url(#clip0_72_2784)">
<path d="M44.11 0.119141H17.7845C13.0398 0.119141 8.48944 2.00399 5.13441 5.35902C1.77938 8.71405 -0.105469 13.2644 -0.105469 18.0092V44.2291C-0.105469 48.9739 1.77938 53.5242 5.13441 56.8793C8.48944 60.2343 13.0398 62.1191 17.7845 62.1191H44.0045C48.7493 62.1191 53.2996 60.2343 56.6547 56.8793C60.0097 53.5242 61.8945 48.9739 61.8945 44.2291V18.0092C61.8945 13.2644 60.0097 8.71405 56.6547 5.35902C53.2996 2.00399 48.7493 0.119141 44.0045 0.119141H44.11ZM56.4467 44.5454C56.4467 47.6962 55.1951 50.7178 52.9672 52.9457C50.7393 55.1736 47.7176 56.4253 44.5668 56.4253H17.7845C14.6338 56.4253 11.6122 55.1736 9.38426 52.9457C7.15636 50.7178 5.90471 47.6962 5.90471 44.5454V17.728C5.91401 14.5834 7.16976 11.5707 9.39665 9.3504C11.6235 7.1301 14.6399 5.8833 17.7845 5.88331H44.602C47.7527 5.88331 50.7744 7.13494 53.0023 9.36284C55.2302 11.5907 56.4818 14.6124 56.4818 17.7631L56.4467 44.5454Z" fill="white"/>
<path d="M30.9998 15.1621C27.8161 15.1621 24.7038 16.1063 22.0565 17.8751C19.4093 19.6439 17.3461 22.158 16.1277 25.0994C14.9093 28.0408 14.5905 31.2775 15.2117 34.4001C15.8328 37.5227 17.3659 40.391 19.6172 42.6423C21.8685 44.8936 24.7368 46.4267 27.8594 47.0479C30.982 47.669 34.2187 47.3502 37.1601 46.1318C40.1016 44.9134 42.6156 42.8502 44.3844 40.203C46.1533 37.5557 47.0974 34.4434 47.0974 31.2597C47.102 29.1444 46.6888 27.0491 45.8814 25.0939C45.0741 23.1388 43.8886 21.3624 42.3929 19.8667C40.8972 18.3709 39.1207 17.1854 37.1656 16.3781C35.2105 15.5707 33.1151 15.1575 30.9998 15.1621ZM30.9998 41.6984C28.9144 41.6984 26.8758 41.08 25.1418 39.9214C23.4078 38.7628 22.0563 37.116 21.2583 35.1893C20.4602 33.2626 20.2514 31.1425 20.6582 29.0971C21.0651 27.0518 22.0694 25.173 23.544 23.6983C25.0186 22.2237 26.8974 21.2194 28.9428 20.8126C30.9882 20.4057 33.1083 20.6145 35.035 21.4126C36.9617 22.2107 38.6084 23.5622 39.7671 25.2962C40.9257 27.0302 41.5441 29.0688 41.5441 31.1542C41.5441 33.9507 40.4332 36.6327 38.4557 38.6101C36.4783 40.5875 33.7963 41.6984 30.9998 41.6984Z" fill="white"/>
<path d="M47.625 10.804C46.8812 10.804 46.1541 11.0245 45.5356 11.4378C44.9172 11.851 44.4352 12.4384 44.1505 13.1255C43.8659 13.8127 43.7914 14.5689 43.9365 15.2984C44.0816 16.0279 44.4398 16.698 44.9658 17.224C45.4917 17.7499 46.1618 18.1081 46.8913 18.2532C47.6208 18.3983 48.377 18.3239 49.0642 18.0392C49.7514 17.7546 50.3387 17.2726 50.752 16.6541C51.1652 16.0356 51.3858 15.3085 51.3858 14.5647C51.3858 13.5673 50.9895 12.6107 50.2842 11.9054C49.579 11.2002 48.6224 10.804 47.625 10.804Z" fill="white"/>
</g>
<defs>
<clipPath id="clip0_72_2784">
<rect width="62" height="62" fill="white" transform="translate(0 0.119141)"/>
</clipPath>
</defs>
</svg>
