<svg width="68" height="24" viewBox="0 0 68 24" fill="none" xmlns="http://www.w3.org/2000/svg">
<g clip-path="url(#clip0_72_2795)">
<path d="M67.0469 24C67.3001 23.9984 67.5424 23.8957 67.7208 23.7143C67.8993 23.5328 67.9995 23.2875 67.9995 23.0317V19.4509C67.9995 19.1952 67.8993 18.9498 67.7208 18.7684C67.5424 18.5869 67.3001 18.4842 67.0469 18.4826H57.4842V14.7617H67.0469C67.2991 14.765 67.5424 14.6678 67.7241 14.4911C67.9058 14.3144 68.0113 14.0725 68.0176 13.8178V10.2309C68.0176 9.97571 67.9172 9.73098 67.7386 9.55053C67.5599 9.37009 67.3176 9.26871 67.0649 9.26871H57.4842V5.54174H67.0469C67.2995 5.54174 67.5418 5.44037 67.7205 5.25993C67.8991 5.07948 67.9995 4.83473 67.9995 4.57954V0.96828C67.9995 0.712527 67.8993 0.467172 67.7208 0.285758C67.5424 0.104344 67.3001 0.00160851 67.0469 0H52.9802C52.8543 0 52.7296 0.0250461 52.6133 0.0737068C52.497 0.122368 52.3913 0.193689 52.3023 0.283602C52.2133 0.373515 52.1426 0.480261 52.0945 0.597739C52.0463 0.715216 52.0215 0.841123 52.0215 0.96828V22.9952C52.0215 23.1223 52.0463 23.2482 52.0945 23.3657C52.1426 23.4832 52.2133 23.59 52.3023 23.6799C52.3913 23.7698 52.497 23.8411 52.6133 23.8898C52.7296 23.9384 52.8543 23.9635 52.9802 23.9635H67.0469V24Z" fill="#06C755"/>
<path d="M15.0193 24C15.2736 24 15.5174 23.898 15.6972 23.7164C15.877 23.5348 15.978 23.2885 15.978 23.0317V19.4509C15.978 19.1941 15.877 18.9478 15.6972 18.7662C15.5174 18.5846 15.2736 18.4826 15.0193 18.4826H5.46267V0.96828C5.46267 0.711476 5.36167 0.46519 5.18188 0.283602C5.00209 0.102014 4.75823 0 4.50397 0H0.958697C0.704439 0 0.460577 0.102014 0.28079 0.283602C0.101002 0.46519 0 0.711476 0 0.96828V23.0195C0 23.2763 0.101002 23.5226 0.28079 23.7042C0.460577 23.8858 0.704439 23.9878 0.958697 23.9878H15.0193" fill="#06C755"/>
<path d="M23.4845 0H19.9391C19.4097 0 18.9805 0.433515 18.9805 0.968282V23.0317C18.9805 23.5665 19.4097 24 19.9391 24H23.4845C24.0139 24 24.4431 23.5665 24.4431 23.0317V0.968282C24.4431 0.433515 24.0139 0 23.4845 0Z" fill="#06C755"/>
<path d="M47.6568 0H44.1055C43.8523 0.00160851 43.61 0.104344 43.4315 0.285758C43.253 0.467172 43.1528 0.712527 43.1528 0.96828V14.0736L33.156 0.420199C33.1333 0.38508 33.107 0.352425 33.0776 0.32276L33.0173 0.261858L32.9691 0.219243L32.9148 0.182687H32.8847L32.8365 0.152246H32.8063H32.746H32.6917H32.6555H32.5953H28.8269C28.5726 0.152246 28.3287 0.25426 28.149 0.435848C27.9692 0.617436 27.8682 0.863721 27.8682 1.12053V23.184C27.8682 23.4408 27.9692 23.6871 28.149 23.8686C28.3287 24.0502 28.5726 24.1523 28.8269 24.1523H32.3782C32.6314 24.1506 32.8737 24.0479 33.0522 23.8665C33.2307 23.6851 33.3308 23.4397 33.3308 23.184V9.9325L43.3277 23.5615C43.3945 23.6574 43.4783 23.74 43.5749 23.8051L43.6352 23.8417H43.6834H43.7316H43.7618H43.8281C43.9083 23.8662 43.9916 23.8785 44.0753 23.8782H47.6086C47.8618 23.8766 48.1041 23.7739 48.2825 23.5925C48.461 23.411 48.5612 23.1657 48.5612 22.9099V0.96828C48.5616 0.720696 48.4681 0.482371 48.2999 0.30228C48.1317 0.122188 47.9015 0.0140139 47.6568 0Z" fill="#06C755"/>
</g>
<defs>
<clipPath id="clip0_72_2795">
<rect width="68" height="24" fill="white"/>
</clipPath>
</defs>
</svg>
