<svg width="88" height="63" viewBox="0 0 88 63" fill="none" xmlns="http://www.w3.org/2000/svg">
<g clip-path="url(#clip0_72_2780)">
<path d="M86.6689 11.4606C86.3436 8.80216 85.1071 6.33613 83.1673 4.4772C81.2275 2.61826 78.7028 1.47984 76.0177 1.25334C72.7209 0.749272 56.9975 0.119141 44.3174 0.119141C31.6373 0.119141 15.597 0.749272 12.2367 1.25334C9.55881 1.48213 7.04246 2.62281 5.11325 4.48268C3.18404 6.34255 1.96023 8.80747 1.64874 11.4606C0.842794 17.7311 0.398318 24.0422 0.317383 30.3631V31.4342C0.391215 37.86 0.835695 44.2764 1.64874 50.6517C1.96235 53.298 3.18852 55.7547 5.11876 57.6041C7.04901 59.4534 9.56425 60.5813 12.2367 60.796C15.597 61.3001 31.6373 61.9301 44.3174 61.9301C56.9975 61.9301 73.1012 61.3001 76.3981 60.796C79.0777 60.5836 81.6013 59.458 83.5421 57.6095C85.483 55.7611 86.7218 53.3033 87.0493 50.6517C87.8624 44.2764 88.3069 37.86 88.3808 31.4342V30.3631C88.1737 24.0349 87.6021 17.7238 86.6689 11.4606ZM33.4125 42.3346V19.9667L54.5249 30.8671L33.4125 42.3346Z" fill="white"/>
</g>
<defs>
<clipPath id="clip0_72_2780">
<rect width="88" height="62" fill="white" transform="translate(0 0.119141)"/>
</clipPath>
</defs>
</svg>
